<svg xmlns="http://www.w3.org/2000/svg" width="1440" height="980" viewBox="0 0 1440 980">

  <style>
    .bg { fill: #f5f3ef; }
    .window { fill: #fcfbf9; stroke: #ddd7cf; stroke-width: 1.5; }
    .sidebar { fill: #f0ece6; }
    .panel { fill: #ffffff; stroke: #e7e1d8; stroke-width: 1; }
    .soft { fill: #f8f5f1; stroke: #ebe4da; stroke-width: 1; }
    .selected { fill: #eaf2fb; stroke: #d7e6f8; stroke-width: 1; }
    .text { font-family: Arial, Helvetica, sans-serif; fill: #2d2a26; }
    .title { font-size: 28px; font-weight: 700; }
    .label { font-size: 18px; font-weight: 700; }
    .body { font-size: 14px; }
    .small { font-size: 12px; fill: #6f685f; }
    .muted { font-size: 13px; fill: #7d756c; }
    .chipBlue { fill: #e7f1ff; stroke: #d8e8ff; }
    .chipOrange { fill: #fff1df; stroke: #fde4c2; }
    .chipPurple { fill: #f1eaff; stroke: #e4d8ff; }
    .chipGreen { fill: #e9f7ea; stroke: #d7ecd9; }
    .chipText { font-family: Arial, Helvetica, sans-serif; font-size: 12px; fill: #5a534a; }
    .line { stroke: #ebe5dc; stroke-width: 1; }
    .blue { fill: #2f80ed; }
    .green { fill: #5bbf65; }
    .orange { fill: #f2a33b; }
    .purple { fill: #8d6adf; }
  </style>

<rect class="bg" width="1440" height="980"/>
<rect class="window" x="50" y="40" rx="24" width="1340" height="900"/>
<circle cx="82" cy="71" r="7" fill="#ff5f57"/><circle cx="106" cy="71" r="7" fill="#febc2e"/><circle cx="130" cy="71" r="7" fill="#28c840"/>
<rect class="sidebar" x="50" y="40" rx="24" width="220" height="900"/>
<text class="text title" x="76" y="110">Clarity</text>
<g class="text body">
  <text x="95" y="165">Inbox</text><text x="220" y="165">8</text>
  <text x="95" y="205">Hoje</text><text x="220" y="205">6</text>
  <text x="95" y="245">Próximos</text><text x="215" y="245">14</text>
  <text x="95" y="285" font-weight="700">Calendário</text>
  <text x="95" y="325">Projetos</text>
</g>
<rect class="panel" x="76" y="262" rx="10" width="164" height="34" opacity="0.55"/>
<text class="text small" x="76" y="385">Meus projetos</text>
<circle class="blue" cx="84" cy="413" r="5"/><text class="text body" x="100" y="418">Trabalho</text>
<circle class="orange" cx="84" cy="448" r="5"/><text class="text body" x="100" y="453">Marketing</text>
<circle class="green" cx="84" cy="483" r="5"/><text class="text body" x="100" y="488">Pessoal</text>
<circle class="purple" cx="84" cy="518" r="5"/><text class="text body" x="100" y="523">Estudos</text>
<circle fill="#58c1c9" cx="84" cy="553" r="5"/><text class="text body" x="100" y="558">Finanças</text>
<text class="text body" x="76" y="625">Arquivados</text>
<text class="text body" x="76" y="860">Configurações</text>
<text class="text title" x="300" y="100">Maio de 2025</text>
<rect class="soft" x="640" y="76" rx="10" width="60" height="32"/><text class="text small" x="662" y="96">Dia</text>
<rect class="soft" x="708" y="76" rx="10" width="80" height="32"/><text class="text small" x="732" y="96">Semana</text>
<rect class="panel" x="796" y="76" rx="10" width="60" height="32"/><text class="text small" x="817" y="96">Mês</text>
<rect class="soft" x="868" y="76" rx="10" width="44" height="32"/><text class="text small" x="884" y="96">+</text>
<rect class="panel" x="300" y="130" rx="16" width="720" height="760"/>
<text class="text small" x="354" y="165">SEG</text><text class="text small" x="450" y="165">TER</text><text class="text small" x="546" y="165">QUA</text><text class="text small" x="642" y="165">QUI</text><text class="text small" x="738" y="165">SEX</text><text class="text small" x="834" y="165">SÁB</text><text class="text small" x="930" y="165">DOM</text><rect x="320" y="180" width="96" height="112" fill="none" stroke="#ece5dc" stroke-width="1"/><rect x="416" y="180" width="96" height="112" fill="none" stroke="#ece5dc" stroke-width="1"/><rect x="512" y="180" width="96" height="112" fill="none" stroke="#ece5dc" stroke-width="1"/><rect x="608" y="180" width="96" height="112" fill="none" stroke="#ece5dc" stroke-width="1"/><rect x="704" y="180" width="96" height="112" fill="none" stroke="#ece5dc" stroke-width="1"/><rect x="800" y="180" width="96" height="112" fill="none" stroke="#ece5dc" stroke-width="1"/><rect x="896" y="180" width="96" height="112" fill="none" stroke="#ece5dc" stroke-width="1"/><rect x="320" y="292" width="96" height="112" fill="none" stroke="#ece5dc" stroke-width="1"/><rect x="416" y="292" width="96" height="112" fill="none" stroke="#ece5dc" stroke-width="1"/><rect x="512" y="292" width="96" height="112" fill="none" stroke="#ece5dc" stroke-width="1"/><rect x="608" y="292" width="96" height="112" fill="none" stroke="#ece5dc" stroke-width="1"/><rect x="704" y="292" width="96" height="112" fill="none" stroke="#ece5dc" stroke-width="1"/><rect x="800" y="292" width="96" height="112" fill="none" stroke="#ece5dc" stroke-width="1"/><rect x="896" y="292" width="96" height="112" fill="none" stroke="#ece5dc" stroke-width="1"/><rect x="320" y="404" width="96" height="112" fill="none" stroke="#ece5dc" stroke-width="1"/><rect x="416" y="404" width="96" height="112" fill="none" stroke="#ece5dc" stroke-width="1"/><rect x="512" y="404" width="96" height="112" fill="none" stroke="#ece5dc" stroke-width="1"/><rect x="608" y="404" width="96" height="112" fill="none" stroke="#ece5dc" stroke-width="1"/><rect x="704" y="404" width="96" height="112" fill="none" stroke="#ece5dc" stroke-width="1"/><rect x="800" y="404" width="96" height="112" fill="none" stroke="#ece5dc" stroke-width="1"/><rect x="896" y="404" width="96" height="112" fill="none" stroke="#ece5dc" stroke-width="1"/><rect x="320" y="516" width="96" height="112" fill="none" stroke="#ece5dc" stroke-width="1"/><rect x="416" y="516" width="96" height="112" fill="none" stroke="#ece5dc" stroke-width="1"/><rect x="512" y="516" width="96" height="112" fill="none" stroke="#ece5dc" stroke-width="1"/><rect x="608" y="516" width="96" height="112" fill="none" stroke="#ece5dc" stroke-width="1"/><rect x="704" y="516" width="96" height="112" fill="none" stroke="#ece5dc" stroke-width="1"/><rect x="800" y="516" width="96" height="112" fill="none" stroke="#ece5dc" stroke-width="1"/><rect x="896" y="516" width="96" height="112" fill="none" stroke="#ece5dc" stroke-width="1"/><rect x="320" y="628" width="96" height="112" fill="none" stroke="#ece5dc" stroke-width="1"/><rect x="416" y="628" width="96" height="112" fill="none" stroke="#ece5dc" stroke-width="1"/><rect x="512" y="628" width="96" height="112" fill="none" stroke="#ece5dc" stroke-width="1"/><rect x="608" y="628" width="96" height="112" fill="none" stroke="#ece5dc" stroke-width="1"/><rect x="704" y="628" width="96" height="112" fill="none" stroke="#ece5dc" stroke-width="1"/><rect x="800" y="628" width="96" height="112" fill="none" stroke="#ece5dc" stroke-width="1"/><rect x="896" y="628" width="96" height="112" fill="none" stroke="#ece5dc" stroke-width="1"/><rect x="320" y="740" width="96" height="112" fill="none" stroke="#ece5dc" stroke-width="1"/><rect x="416" y="740" width="96" height="112" fill="none" stroke="#ece5dc" stroke-width="1"/><rect x="512" y="740" width="96" height="112" fill="none" stroke="#ece5dc" stroke-width="1"/><rect x="608" y="740" width="96" height="112" fill="none" stroke="#ece5dc" stroke-width="1"/><rect x="704" y="740" width="96" height="112" fill="none" stroke="#ece5dc" stroke-width="1"/><rect x="800" y="740" width="96" height="112" fill="none" stroke="#ece5dc" stroke-width="1"/><rect x="896" y="740" width="96" height="112" fill="none" stroke="#ece5dc" stroke-width="1"/><text class="text small" x="330" y="198">28</text><text class="text small" x="426" y="198">29</text><text class="text small" x="522" y="198">30</text><text class="text small" x="618" y="198">1</text><text class="text small" x="714" y="198">2</text><text class="text small" x="810" y="198">3</text><text class="text small" x="906" y="198">4</text><text class="text small" x="330" y="310">5</text><text class="text small" x="426" y="310">6</text><text class="text small" x="522" y="310">7</text><text class="text small" x="618" y="310">8</text><text class="text small" x="714" y="310">9</text><text class="text small" x="810" y="310">10</text><text class="text small" x="906" y="310">11</text><text class="text small" x="330" y="422">12</text><text class="text small" x="426" y="422">13</text><text class="text small" x="522" y="422">14</text><text class="text small" x="618" y="422">15</text><text class="text small" x="714" y="422">16</text><text class="text small" x="810" y="422">17</text><text class="text small" x="906" y="422">18</text><text class="text small" x="330" y="534">19</text><text class="text small" x="426" y="534">20</text><text class="text small" x="522" y="534">21</text><text class="text small" x="618" y="534">22</text><text class="text small" x="714" y="534">23</text><text class="text small" x="810" y="534">24</text><text class="text small" x="906" y="534">25</text><text class="text small" x="330" y="646">26</text><text class="text small" x="426" y="646">27</text><text class="text small" x="522" y="646">28</text><text class="text small" x="618" y="646">29</text><text class="text small" x="714" y="646">30</text><text class="text small" x="810" y="646">31</text><text class="text small" x="906" y="646">1</text><rect class="chipGreen" x="616" y="190" rx="8" width="82" height="26"/><text class="text small" x="624" y="206">Dia do Trabalho</text><rect class="chipBlue" x="420" y="302" rx="8" width="84" height="34"/><text class="text small" x="428" y="318">Reunião de time</text><text class="text small" x="428" y="332">09:00</text><rect class="chipOrange" x="516" y="302" rx="8" width="88" height="44"/><text class="text small" x="524" y="318">Planejamento de</text><text class="text small" x="524" y="332">conteúdo 14:00</text><rect class="chipPurple" x="612" y="302" rx="8" width="76" height="34"/><text class="text small" x="620" y="318">Workshop</text><text class="text small" x="620" y="332">10:00</text><rect class="chipBlue" x="708" y="302" rx="8" width="82" height="44"/><text class="text small" x="716" y="318">Entrega de</text><text class="text small" x="716" y="332">relatório 17:00</text><rect class="chipBlue" x="324" y="414" rx="8" width="86" height="34"/><text class="text small" x="332" y="430">Análise de dados</text><text class="text small" x="332" y="444">09:00</text><rect class="chipBlue" x="420" y="414" rx="8" width="84" height="34"/><text class="text small" x="428" y="430">Call com cliente</text><text class="text small" x="428" y="444">11:00</text><circle cx="660" cy="531" r="16" fill="#2f80ed"/><text x="654" y="536" fill="white" font-family="Arial" font-size="14">15</text><rect class="chipBlue" x="612" y="526" rx="8" width="90" height="44"/><text class="text small" x="620" y="542">Revisar proposta</text><text class="text small" x="620" y="556">10:00</text><rect class="chipGreen" x="612" y="572" rx="8" width="76" height="34"/><text class="text small" x="620" y="588">Academia</text><text class="text small" x="620" y="602">18:30</text><rect class="chipPurple" x="708" y="526" rx="8" width="96" height="44"/><text class="text small" x="716" y="542">Estudar capítulo 4</text><text class="text small" x="716" y="556">19:00</text><rect class="chipOrange" x="516" y="638" rx="8" width="92" height="44"/><text class="text small" x="524" y="654">Lançamento do</text><text class="text small" x="524" y="668">produto 10:00</text><rect class="chipBlue" x="612" y="638" rx="8" width="92" height="44"/><text class="text small" x="620" y="654">Reunião com</text><text class="text small" x="620" y="668">liderança 09:00</text><rect class="chipPurple" x="804" y="638" rx="8" width="82" height="34"/><text class="text small" x="812" y="654">Curso online</text><text class="text small" x="812" y="668">09:00</text><rect class="chipGreen" x="708" y="750" rx="8" width="100" height="44"/><text class="text small" x="716" y="766">Fechamento</text><text class="text small" x="716" y="780">mensal 16:00</text>
<rect class="panel" x="1045" y="130" rx="16" width="300" height="760"/>
<text class="text label" x="1070" y="175">Agenda - Qui, 15 de maio</text>
<line class="line" x1="1070" y1="190" x2="1320" y2="190"/>
<rect x="1070" y="209" width="4" height="48" fill="#2f80ed" rx="2"/><text class="text body" x="1088" y="225">10:00</text><text class="text body" x="1160" y="225">Revisar proposta de campanha</text><text class="text small" x="1160" y="245">Trabalho</text><rect x="1070" y="283" width="4" height="48" fill="#bbbbbb" rx="2"/><text class="text body" x="1088" y="299">12:00</text><text class="text body" x="1160" y="299">Almoço</text><rect x="1070" y="357" width="4" height="48" fill="#2f80ed" rx="2"/><text class="text body" x="1088" y="373">14:00</text><text class="text body" x="1160" y="373">Reunião de alinhamento</text><text class="text small" x="1160" y="393">Trabalho</text><rect x="1070" y="431" width="4" height="48" fill="#2f80ed" rx="2"/><text class="text body" x="1088" y="447">16:00</text><text class="text body" x="1160" y="447">Atualizar relatório de mídia</text><text class="text small" x="1160" y="467">Trabalho</text><rect x="1070" y="505" width="4" height="48" fill="#5bbf65" rx="2"/><text class="text body" x="1088" y="521">18:30</text><text class="text body" x="1160" y="521">Academia</text><text class="text small" x="1160" y="541">Pessoal</text>
<text class="text label" x="1070" y="640" font-size="18">Tarefas do dia</text>
<circle cx="1084" cy="675" r="9" fill="none" stroke="#2f80ed" stroke-width="2"/><text class="text body" x="1105" y="680">Revisar proposta de campanha</text>
<circle cx="1084" cy="715" r="9" fill="none" stroke="#2f80ed" stroke-width="2"/><text class="text body" x="1105" y="720">Estudar capítulo 4 - Comportamento</text>
<circle cx="1084" cy="755" r="9" fill="none" stroke="#2f80ed" stroke-width="2"/><text class="text body" x="1105" y="760">Organizar despesas de abril</text>
<text class="text small" x="1105" y="805">+ Adicionar tarefa</text>
</svg>
