<svg xmlns="http://www.w3.org/2000/svg" width="1440" height="980" viewBox="0 0 1440 980">

  <style>
    .bg { fill: #f5f3ef; }
    .window { fill: #fcfbf9; stroke: #ddd7cf; stroke-width: 1.5; }
    .sidebar { fill: #f0ece6; }
    .panel { fill: #ffffff; stroke: #e7e1d8; stroke-width: 1; }
    .soft { fill: #f8f5f1; stroke: #ebe4da; stroke-width: 1; }
    .selected { fill: #eaf2fb; stroke: #d7e6f8; stroke-width: 1; }
    .text { font-family: Arial, Helvetica, sans-serif; fill: #2d2a26; }
    .title { font-size: 28px; font-weight: 700; }
    .label { font-size: 18px; font-weight: 700; }
    .body { font-size: 14px; }
    .small { font-size: 12px; fill: #6f685f; }
    .muted { font-size: 13px; fill: #7d756c; }
    .chipBlue { fill: #e7f1ff; stroke: #d8e8ff; }
    .chipOrange { fill: #fff1df; stroke: #fde4c2; }
    .chipPurple { fill: #f1eaff; stroke: #e4d8ff; }
    .chipGreen { fill: #e9f7ea; stroke: #d7ecd9; }
    .chipText { font-family: Arial, Helvetica, sans-serif; font-size: 12px; fill: #5a534a; }
    .line { stroke: #ebe5dc; stroke-width: 1; }
    .blue { fill: #2f80ed; }
    .green { fill: #5bbf65; }
    .orange { fill: #f2a33b; }
    .purple { fill: #8d6adf; }
  </style>

<rect class="bg" width="1440" height="980"/>
<rect class="window" x="50" y="40" rx="24" width="1340" height="900"/>
<circle cx="82" cy="71" r="7" fill="#ff5f57"/><circle cx="106" cy="71" r="7" fill="#febc2e"/><circle cx="130" cy="71" r="7" fill="#28c840"/>
<rect class="sidebar" x="50" y="40" rx="24" width="260" height="900"/>
<text class="text title" x="75" y="110">Clarity</text>
<g class="text body">
  <text x="105" y="165">Inbox</text><text x="260" y="165">8</text>
  <text x="105" y="205" font-weight="700">Hoje</text><text x="260" y="205">6</text>
  <text x="105" y="245">Próximos</text><text x="255" y="245">14</text>
  <text x="105" y="285">Calendário</text>
  <text x="105" y="325">Projetos</text>
</g>
<rect class="panel" x="78" y="182" rx="10" width="204" height="34" opacity="0.55"/>
<text class="text small" x="78" y="385">Meus projetos</text>
<circle class="blue" cx="86" cy="413" r="5"/><text class="text body" x="102" y="418">Trabalho</text>
<circle class="orange" cx="86" cy="448" r="5"/><text class="text body" x="102" y="453">Marketing</text>
<circle class="green" cx="86" cy="483" r="5"/><text class="text body" x="102" y="488">Pessoal</text>
<circle class="purple" cx="86" cy="518" r="5"/><text class="text body" x="102" y="523">Estudos</text>
<circle fill="#58c1c9" cx="86" cy="553" r="5"/><text class="text body" x="102" y="558">Finanças</text>
<text class="text body" x="78" y="625">Arquivados</text>
<text class="text body" x="78" y="860">Configurações</text>
<text class="text title" x="360" y="120">Hoje</text>
<text class="text muted" x="880" y="118">Qui, 15 de maio</text>
<rect class="selected" x="340" y="150" rx="14" width="560" height="82"/>
<circle cx="366" cy="182" r="11" fill="none" stroke="#9f978e" stroke-width="2"/>
<text class="text label" x="395" y="184">Revisar proposta de campanha</text>
<circle class="blue" cx="404" cy="210" r="5"/><text class="text small" x="418" y="214">Trabalho</text>
<text class="text small" x="505" y="214">Hoje</text>
<rect class="chipBlue" x="805" y="163" rx="10" width="74" height="28"/><text class="chipText" x="824" y="181">Tarefa</text>

<rect class="panel" x="340" y="246" rx="14" width="560" height="72"/>
<circle cx="366" cy="278" r="11" fill="none" stroke="#b0a79d" stroke-width="2"/>
<text class="text body" x="395" y="276" font-size="18">Ideias para novo posicionamento</text>
<text class="text small" x="395" y="300">Marketing   •   Hoje</text>
<rect class="chipOrange" x="805" y="262" rx="10" width="84" height="28"/><text class="chipText" x="824" y="280">Nota</text>

<rect class="panel" x="340" y="330" rx="14" width="560" height="72"/>
<circle cx="366" cy="362" r="11" fill="none" stroke="#b0a79d" stroke-width="2"/>
<text class="text body" x="395" y="360" font-size="18">Planejamento Q2</text>
<text class="text small" x="395" y="384">Trabalho   •   Amanhã</text>
<rect class="chipPurple" x="805" y="346" rx="10" width="84" height="28"/><text class="chipText" x="824" y="364">Projeto</text>

<rect class="panel" x="340" y="414" rx="14" width="560" height="72"/>
<circle cx="366" cy="446" r="11" fill="none" stroke="#b0a79d" stroke-width="2"/>
<text class="text body" x="395" y="444" font-size="18">Briefing – Lançamento do produto</text>
<text class="text small" x="395" y="468">Trabalho   •   Amanhã</text>
<rect class="chipGreen" x="805" y="430" rx="10" width="84" height="28"/><text class="chipText" x="824" y="448">Documento</text>

<rect class="panel" x="340" y="498" rx="14" width="560" height="72"/>
<circle cx="366" cy="530" r="11" fill="none" stroke="#b0a79d" stroke-width="2"/>
<text class="text body" x="395" y="528" font-size="18">Estudar capítulo 4 – Comportamento</text>
<text class="text small" x="395" y="552">Estudos   •   Sex, 16 de mai</text>
<rect class="chipBlue" x="805" y="514" rx="10" width="84" height="28"/><text class="chipText" x="824" y="532">Tarefa</text>

<rect class="panel" x="340" y="582" rx="14" width="560" height="72"/>
<circle cx="366" cy="614" r="11" fill="none" stroke="#b0a79d" stroke-width="2"/>
<text class="text body" x="395" y="612" font-size="18">Organizar despesas de abril</text>
<text class="text small" x="395" y="636">Finanças   •   Sex, 16 de mai</text>
<rect class="chipBlue" x="805" y="598" rx="10" width="84" height="28"/><text class="chipText" x="824" y="616">Tarefa</text>

<rect class="panel" x="340" y="666" rx="14" width="560" height="72"/>
<circle cx="366" cy="698" r="11" fill="none" stroke="#b0a79d" stroke-width="2"/>
<text class="text body" x="395" y="696" font-size="18">Leitura: Hábitos Atômicos</text>
<text class="text small" x="395" y="720">Pessoal   •   Sáb, 17 de mai</text>
<rect class="chipOrange" x="805" y="682" rx="10" width="84" height="28"/><text class="chipText" x="824" y="700">Nota</text>

<rect class="panel" x="340" y="750" rx="14" width="560" height="72"/>
<circle cx="366" cy="782" r="11" fill="none" stroke="#b0a79d" stroke-width="2"/>
<text class="text body" x="395" y="780" font-size="18">Academia</text>
<text class="text small" x="395" y="804">Pessoal   •   Sáb, 17 de mai</text>
<rect class="chipBlue" x="805" y="766" rx="10" width="84" height="28"/><text class="chipText" x="824" y="784">Tarefa</text>

<rect class="panel" x="930" y="95" rx="18" width="420" height="800"/>
<circle cx="968" cy="140" r="13" fill="none" stroke="#8f867d" stroke-width="2"/>
<text class="text title" x="1000" y="147" font-size="22">Revisar proposta de campanha</text>
<text class="text body" x="968" y="200">Analisar a proposta da campanha de lançamento e</text>
<text class="text body" x="968" y="224">alinhar ajustes de orçamento, mídia e cronograma</text>
<text class="text body" x="968" y="248">com o time.</text>
<text class="text muted" x="968" y="315">Complexidade</text>
<rect class="soft" x="1110" y="294" rx="10" width="190" height="40"/><circle class="orange" cx="1132" cy="314" r="5"/><text class="text body" x="1148" y="319">Média</text>
<text class="text muted" x="968" y="365">Projeto</text>
<rect class="soft" x="1110" y="344" rx="10" width="190" height="40"/><circle class="blue" cx="1132" cy="364" r="5"/><text class="text body" x="1148" y="369">Trabalho</text>
<text class="text muted" x="968" y="415">Data</text>
<rect class="soft" x="1110" y="394" rx="10" width="190" height="40"/><text class="text body" x="1148" y="419">Hoje</text>
<text class="text muted" x="968" y="465">Etiquetas</text>
<rect class="soft" x="1110" y="444" rx="10" width="190" height="54"/>
<rect class="panel" x="1122" y="458" rx="10" width="82" height="24"/><text class="text small" x="1140" y="474">campanha</text>
<rect class="panel" x="1212" y="458" rx="10" width="66" height="24"/><text class="text small" x="1232" y="474">revisão</text>
<text class="text label" x="968" y="560" font-size="18">Subtarefas</text>
<text class="text small" x="1275" y="560">1/3</text>
<line class="line" x1="968" y1="575" x2="1310" y2="575"/>
<circle cx="980" cy="610" r="10" fill="none" stroke="#2f80ed" stroke-width="2"/><text class="text body" x="1008" y="615" fill="#8d857c">Verificar objetivos da campanha</text>
<circle cx="980" cy="655" r="10" fill="none" stroke="#9e968d" stroke-width="2"/><text class="text body" x="1008" y="660">Revisar orçamento</text>
<circle cx="980" cy="700" r="10" fill="none" stroke="#9e968d" stroke-width="2"/><text class="text body" x="1008" y="705">Validar cronograma com time</text>
<rect class="soft" x="968" y="790" rx="12" width="332" height="50"/>
<text class="text small" x="990" y="820">Adicionar nota...</text>
</svg>
