<svg xmlns="http://www.w3.org/2000/svg" width="1600" height="1100" viewBox="0 0 1600 1100">
  <rect width="1600" height="1100" fill="#f5f2ee"/>
  <text x="60" y="55" font-family="Arial, sans-serif" font-size="32" font-weight="700" fill="#222">Clarity — UI Mockup (SVG)</text>
  <text x="60" y="85" font-family="Arial, sans-serif" font-size="15" fill="#666">Pacote de referência para outra IA — inclui lista, detalhe, calendário e mobile</text>

  <rect x="50" y="110" width="1120" height="450" rx="20" fill="#fbfaf8" stroke="#ddd7cf"/>
  <rect x="50" y="110" width="220" height="450" rx="20" fill="#f1ece6" stroke="#e4ddd4"/>
  <text x="75" y="155" font-family="Arial, sans-serif" font-size="24" font-weight="700" fill="#222">Clarity</text>
  <text x="75" y="210" font-family="Arial, sans-serif" font-size="16" fill="#222">Inbox</text>
  <rect x="62" y="225" width="190" height="36" rx="10" fill="#ebe7e1"/>
  <text x="75" y="248" font-family="Arial, sans-serif" font-size="16" fill="#222">Hoje</text>
  <text x="75" y="290" font-family="Arial, sans-serif" font-size="16" fill="#222">Próximos</text>
  <text x="75" y="330" font-family="Arial, sans-serif" font-size="16" fill="#222">Calendário</text>
  <text x="75" y="370" font-family="Arial, sans-serif" font-size="16" fill="#222">Projetos</text>

  <text x="300" y="155" font-family="Arial, sans-serif" font-size="24" font-weight="700" fill="#222">Hoje</text>
  <text x="980" y="155" font-family="Arial, sans-serif" font-size="15" fill="#666">Qui, 15 de maio</text>
  <rect x="290" y="185" width="430" height="56" rx="12" fill="#eef5ff" stroke="#d7e6ff"/>
  <text x="315" y="210" font-family="Arial, sans-serif" font-size="16" fill="#222">Revisar proposta de campanha</text>
  <text x="315" y="228" font-family="Arial, sans-serif" font-size="13" fill="#777">Trabalho • Hoje</text>
  <rect x="650" y="198" width="56" height="22" rx="8" fill="#e9f2ff"/>
  <text x="663" y="213" font-family="Arial, sans-serif" font-size="11" fill="#666">Tarefa</text>

  <rect x="290" y="250" width="430" height="52" rx="12" fill="#fff" stroke="#e9e3db"/>
  <text x="315" y="272" font-family="Arial, sans-serif" font-size="16" fill="#222">Ideias para novo posicionamento</text>
  <text x="315" y="290" font-family="Arial, sans-serif" font-size="13" fill="#777">Marketing • Hoje</text>

  <line x1="750" y1="110" x2="750" y2="560" stroke="#eee8e0"/>
  <text x="785" y="155" font-family="Arial, sans-serif" font-size="22" font-weight="700" fill="#222">Revisar proposta de campanha</text>
  <text x="785" y="195" font-family="Arial, sans-serif" font-size="14" fill="#555">Analisar orçamento, mídia e cronograma com o time.</text>
  <text x="785" y="245" font-family="Arial, sans-serif" font-size="14" fill="#555">Complexidade</text>
  <rect x="920" y="228" width="180" height="30" rx="8" fill="#fff" stroke="#e9e3db"/>
  <text x="942" y="247" font-family="Arial, sans-serif" font-size="14" fill="#555">Média</text>

  <rect x="50" y="600" width="1120" height="430" rx="20" fill="#fbfaf8" stroke="#ddd7cf"/>
  <rect x="50" y="600" width="190" height="430" rx="20" fill="#f1ece6" stroke="#e4ddd4"/>
  <text x="75" y="645" font-family="Arial, sans-serif" font-size="24" font-weight="700" fill="#222">Clarity</text>
  <rect x="62" y="782" width="156" height="36" rx="10" fill="#ebe7e1"/>
  <text x="75" y="805" font-family="Arial, sans-serif" font-size="16" fill="#222">Calendário</text>
  <text x="270" y="650" font-family="Arial, sans-serif" font-size="24" font-weight="700" fill="#222">Maio de 2025</text>
  <rect x="258" y="680" width="630" height="320" rx="12" fill="#fff" stroke="#e9e3db"/>
  <g stroke="#eee8e0">
    <line x1="348" y1="710" x2="348" y2="1000"/><line x1="438" y1="710" x2="438" y2="1000"/>
    <line x1="528" y1="710" x2="528" y2="1000"/><line x1="618" y1="710" x2="618" y2="1000"/>
    <line x1="708" y1="710" x2="708" y2="1000"/><line x1="798" y1="710" x2="798" y2="1000"/>
    <line x1="258" y1="755" x2="888" y2="755"/><line x1="258" y1="805" x2="888" y2="805"/>
    <line x1="258" y1="855" x2="888" y2="855"/><line x1="258" y1="905" x2="888" y2="905"/>
    <line x1="258" y1="955" x2="888" y2="955"/>
  </g>
  <circle cx="555" cy="825" r="12" fill="#2d7ef7"/>
  <text x="551" y="829" font-family="Arial, sans-serif" font-size="11" fill="#fff">15</text>
  <rect x="540" y="838" width="78" height="34" rx="6" fill="#e9f2ff"/>
  <text x="548" y="852" font-family="Arial, sans-serif" font-size="11" fill="#666">Revisar proposta</text>

  <text x="920" y="705" font-family="Arial, sans-serif" font-size="18" font-weight="700" fill="#222">Agenda · Qui, 15 de maio</text>
  <rect x="920" y="720" width="210" height="48" rx="10" fill="#eef5ff" stroke="#d7e6ff"/>
  <text x="934" y="740" font-family="Arial, sans-serif" font-size="11" fill="#666">10:00</text>
  <text x="980" y="740" font-family="Arial, sans-serif" font-size="14" fill="#555">Revisar proposta</text>

  <rect x="1215" y="350" width="320" height="660" rx="44" fill="#111"/>
  <rect x="1228" y="363" width="294" height="634" rx="34" fill="#fff"/>
  <text x="1255" y="425" font-family="Arial, sans-serif" font-size="22" font-weight="700" fill="#222">Hoje</text>
  <text x="1255" y="458" font-family="Arial, sans-serif" font-size="12" fill="#777">SEG TER QUA QUI SEX SÁB DOM</text>
  <circle cx="1392" cy="484" r="14" fill="#2d7ef7"/>
  <text x="1388" y="489" font-family="Arial, sans-serif" font-size="11" fill="#fff">15</text>
  <rect x="1252" y="525" width="244" height="160" rx="14" fill="#fff" stroke="#e9e3db"/>
  <text x="1270" y="555" font-family="Arial, sans-serif" font-size="18" font-weight="700" fill="#222">Próximos eventos</text>
  <text x="1272" y="590" font-family="Arial, sans-serif" font-size="11" fill="#666">10:00</text>
  <text x="1332" y="590" font-family="Arial, sans-serif" font-size="14" fill="#555">Revisar proposta</text>
</svg>